<svg width="36" height="34" viewBox="0 0 36 34" fill="none" xmlns="http://www.w3.org/2000/svg">
<path opacity="0.5" fill-rule="evenodd" clip-rule="evenodd" d="M34.0707 20.9451C32.1807 18.8899 28.9133 19.1748 27.3911 21.5062C25.8658 19.1709 22.5945 18.8923 20.7069 20.9498C19.1112 22.6895 19.2935 25.4239 20.9487 27.1066L26.8316 33.0857C27.1384 33.3972 27.6408 33.3972 27.9476 33.0857L33.832 27.1066C35.4904 25.4224 35.6704 22.684 34.0707 20.9451Z" fill="#258AFF"/>
<path fill-rule="evenodd" clip-rule="evenodd" d="M14.0872 20.3479H6.26112C5.82834 20.3479 5.47852 19.9973 5.47852 19.5653C5.47852 19.1333 5.82834 18.7827 6.26112 18.7827H14.0872C14.52 18.7827 14.8698 19.1333 14.8698 19.5653C14.8698 19.9973 14.52 20.3479 14.0872 20.3479Z" fill="#258AFF"/>
<path fill-rule="evenodd" clip-rule="evenodd" d="M3.13043 0H32.8696C34.596 0 36 1.404 36 3.13043V17.2174H34.4348V13.3043H1.56522V23.4783C1.56522 24.3415 2.26722 25.0435 3.13043 25.0435H15.6522V26.6087H3.13043C1.404 26.6087 0 25.2047 0 23.4783V3.13043C0 1.404 1.404 0 3.13043 0ZM1.56522 7.04348H34.4348V3.13043C34.4348 2.26722 33.7328 1.56522 32.8696 1.56522H3.13043C2.26722 1.56522 1.56522 2.26722 1.56522 3.13043V7.04348Z" fill="#258AFF"/>
</svg>
