<svg width="36" height="36" viewBox="0 0 36 36" fill="none" xmlns="http://www.w3.org/2000/svg">
<path opacity="0.5" fill-rule="evenodd" clip-rule="evenodd" d="M8.03906 4.12604L9.14567 5.23264C11.494 2.88422 14.679 1.56488 18.0001 1.56488C21.3212 1.56488 24.5062 2.88422 26.8545 5.23264L27.9611 4.12604C25.3193 1.48418 21.7362 0 18.0001 0C14.264 0 10.6809 1.48418 8.03906 4.12604Z" fill="#258AFF"/>
<path opacity="0.5" fill-rule="evenodd" clip-rule="evenodd" d="M17.9996 6.26099C15.9235 6.25826 13.9319 7.08323 12.4658 8.55325L13.5724 9.65986C14.7466 8.48565 16.3391 7.82598 17.9996 7.82598C19.6602 7.82598 21.2527 8.48565 22.4269 9.65986L23.5335 8.55325C22.0674 7.08323 20.0758 6.25826 17.9996 6.26099Z" fill="#258AFF"/>
<path fill-rule="evenodd" clip-rule="evenodd" d="M23.4782 28.1741V25.6079L21.6657 25.003C21.458 24.9333 21.289 24.7798 21.1997 24.5798C21.1105 24.3797 21.1092 24.1514 21.1961 23.9504L23.4782 18.6834V17.2176C23.4681 14.1033 24.8895 11.157 27.3334 9.22662C29.7773 7.29624 32.9726 6.59584 35.9999 7.32697V35.2176H29.7391V31.3045H26.6086C24.8797 31.3045 23.4782 29.903 23.4782 28.1741Z" fill="#258AFF"/>
<path fill-rule="evenodd" clip-rule="evenodd" d="M12.5217 28.1741V25.608L14.3343 25.003C14.542 24.9334 14.711 24.7799 14.8002 24.5798C14.8895 24.3798 14.8908 24.1515 14.8038 23.9504L12.5217 18.6834V17.2176C12.5217 11.5987 7.96672 7.0437 2.34783 7.0437C1.55687 7.04666 0.768954 7.14173 0 7.32701V35.2176H6.26087V31.3046H9.3913C11.1202 31.3046 12.5217 29.903 12.5217 28.1741Z" fill="#258AFF"/>
<path opacity="0.5" fill-rule="evenodd" clip-rule="evenodd" d="M17.9998 15.6524C18.8642 15.6524 19.565 14.9516 19.565 14.0872C19.565 13.2227 18.8642 12.522 17.9998 12.522C17.1353 12.522 16.4346 13.2227 16.4346 14.0872C16.4346 14.9516 17.1353 15.6524 17.9998 15.6524Z" fill="#258AFF"/>
</svg>
