<svg width="36" height="36" viewBox="0 0 36 36" fill="none" xmlns="http://www.w3.org/2000/svg">
<path opacity="0.2" fill-rule="evenodd" clip-rule="evenodd" d="M7.04395 18C7.04395 24.0417 11.9587 28.9565 18.0005 28.9565C24.0422 28.9565 28.957 24.0417 28.957 18C28.957 11.9582 24.0422 7.04346 18.0005 7.04346C11.9587 7.04346 7.04395 11.9582 7.04395 18ZM8.60916 18C8.60916 12.8215 12.8219 8.60867 18.0005 8.60867C23.179 8.60867 27.3918 12.8215 27.3918 18C27.3918 23.1785 23.179 27.3913 18.0005 27.3913C12.8219 27.3913 8.60916 23.1785 8.60916 18Z" fill="#258AFF"/>
<path opacity="0.5" fill-rule="evenodd" clip-rule="evenodd" d="M17.9996 21.1305C19.7285 21.1305 21.13 19.729 21.13 18.0001C21.13 16.2712 19.7285 14.8696 17.9996 14.8696C16.2707 14.8696 14.8691 16.2712 14.8691 18.0001C14.8691 19.729 16.2707 21.1305 17.9996 21.1305Z" fill="#258AFF"/>
<path fill-rule="evenodd" clip-rule="evenodd" d="M34.3346 10.433C33.919 10.753 33.4659 11.027 32.9776 11.2359C33.9253 13.3341 34.4348 15.631 34.4348 18C34.4348 27.0626 27.0626 34.4348 18 34.4348C8.93739 34.4348 1.56522 27.0626 1.56522 18C1.56522 8.93739 8.93739 1.56522 18 1.56522C21.1477 1.56522 24.221 2.48791 26.8505 4.16817C26.7034 4.57983 26.6087 5.01652 26.6087 5.47826C26.6087 7.63591 28.3641 9.3913 30.5217 9.3913C32.6794 9.3913 34.4348 7.63591 34.4348 5.47826C34.4348 3.32061 32.6794 1.56522 30.5217 1.56522C29.3885 1.56522 28.3743 2.05748 27.659 2.82991C24.7868 1.00252 21.4333 0 18 0C8.07496 0 0 8.07496 0 18C0 27.925 8.07496 36 18 36C27.925 36 36 27.925 36 18C36 15.3462 35.4185 12.7722 34.3346 10.433Z" fill="#258AFF"/>
</svg>
