<svg width="16" height="14" viewBox="0 0 16 14" fill="none" xmlns="http://www.w3.org/2000/svg">
<rect width="16" height="14" fill="#F5F5F5"/>
<g id="&#208;&#151;&#208;&#176;&#208;&#191;&#208;&#191;&#208;&#176;&#209;&#128;&#208;&#190;&#208;&#178; &#208;&#152;&#208;&#187;&#209;&#140;&#208;&#180;&#208;&#176;&#209;&#128;" clip-path="url(#clip0_0_1)">
<rect width="1600" height="6721" transform="translate(-329 -1037)" fill="white"/>
<g id="User Rating" clip-path="url(#clip1_0_1)">
<g id="Rating" clip-path="url(#clip2_0_1)">
<g id="heart-2 copy 4">
<path id="Path" fill-rule="evenodd" clip-rule="evenodd" d="M14.6774 1.29938C12.9141 -0.432673 10.0445 -0.432673 8.2809 1.29938C8.18313 1.39542 8.08955 1.49658 8.00013 1.60253C7.91072 1.49624 7.81713 1.39542 7.71901 1.29904C5.95577 -0.433014 3.08615 -0.433014 1.32256 1.29904C-0.441028 3.0311 -0.44068 5.84997 1.32256 7.58237L7.75381 13.8999C7.82165 13.9665 7.91072 14 7.99978 14C8.08885 14 8.17792 13.9665 8.24576 13.8999L14.677 7.58237C16.4409 5.85031 16.4409 3.03144 14.6774 1.29938Z" fill="#FF523D"/>
</g>
</g>
</g>
</g>
<defs>
<clipPath id="clip0_0_1">
<rect width="1600" height="6721" fill="white" transform="translate(-329 -1037)"/>
</clipPath>
<clipPath id="clip1_0_1">
<rect width="1114" height="281" fill="white" transform="translate(-84 -94)"/>
</clipPath>
<clipPath id="clip2_0_1">
<rect width="132" height="173" fill="white" transform="translate(-84 -90)"/>
</clipPath>
</defs>
</svg>
