<svg width="18" height="16" viewBox="0 0 18 16" fill="none" xmlns="http://www.w3.org/2000/svg">
<path fill-rule="evenodd" clip-rule="evenodd" d="M17.3267 5.83232L11.9989 5.05825L9.61717 0.230548C9.54937 0.115239 9.42559 0.0444336 9.29183 0.0444336C9.15806 0.0444336 9.03429 0.115239 8.96649 0.230548L6.58366 5.05716L1.25443 5.83232C1.11772 5.85205 1.00407 5.94768 0.961251 6.07899C0.91843 6.21031 0.953862 6.35455 1.05265 6.45107L4.90886 10.2093L3.9987 15.5157C3.97548 15.6517 4.03142 15.7891 4.14305 15.8703C4.25468 15.9514 4.40268 15.9622 4.52491 15.8982L9.29056 13.393L14.0562 15.8971C14.1784 15.9612 14.3264 15.9503 14.4381 15.8692C14.5497 15.7881 14.6056 15.6506 14.5824 15.5146L13.6723 10.2093L17.5285 6.45107C17.6272 6.3546 17.6627 6.21042 17.62 6.07913C17.5772 5.94783 17.4637 5.85217 17.327 5.83232H17.3267Z" fill="#F5A623"/>
</svg>
