<svg width="36" height="36" viewBox="0 0 36 36" fill="none" xmlns="http://www.w3.org/2000/svg">
<path opacity="0.5" fill-rule="evenodd" clip-rule="evenodd" d="M21.1264 18.7269C17.6 17.7491 14.2784 17.7693 10.8656 18.7179C9.1512 19.1936 8 20.6404 8 22.3176V23.2496C8 23.6638 8.3576 24 8.8 24H23.2C23.6424 24 24 23.6638 24 23.2496V22.3281C24 20.6509 22.8456 19.2034 21.1264 18.7269Z" fill="white"/>
<path opacity="0.5" fill-rule="evenodd" clip-rule="evenodd" d="M16.5 16C19.0343 16 21 13.1054 21 10.6154C21 8.07 18.9818 6 16.5 6C14.0182 6 12 8.07 12 10.6154C12 13.1054 13.9657 16 16.5 16Z" fill="white"/>
<path fill-rule="evenodd" clip-rule="evenodd" d="M30.2135 28C29.5411 28.7998 28.7999 29.5408 28 30.213L33.7865 36L36 33.7862L30.2135 28Z" fill="white"/>
<path fill-rule="evenodd" clip-rule="evenodd" d="M16.5 0C25.5978 0 33 7.40143 33 16.5C33 25.5986 25.5978 33 16.5 33C7.40221 33 0 25.5986 0 16.5C0 7.40143 7.40221 0 16.5 0ZM1.57143 16.5C1.57143 24.7319 8.26807 31.4286 16.5 31.4286C24.7319 31.4286 31.4286 24.7319 31.4286 16.5C31.4286 8.26807 24.7319 1.57143 16.5 1.57143C8.26807 1.57143 1.57143 8.26807 1.57143 16.5Z" fill="white"/>
</svg>
