<svg width="46" height="36" viewBox="0 0 46 36" fill="none" xmlns="http://www.w3.org/2000/svg">
<path fill-rule="evenodd" clip-rule="evenodd" d="M10.631 32.841L0 22L3 19L11 24L34 0L37 2L13.65 32.653C13.2981 33.1148 12.7629 33.4009 12.1835 33.437C11.604 33.4731 11.0374 33.2556 10.631 32.841Z" fill="white"/>
<path opacity="0.497489" fill-rule="evenodd" clip-rule="evenodd" d="M45 9H40C39.4477 9 39 8.55228 39 8C39 7.44772 39.4477 7 40 7H45C45.5523 7 46 7.44772 46 8C46 8.55228 45.5523 9 45 9Z" fill="white"/>
<path opacity="0.497489" fill-rule="evenodd" clip-rule="evenodd" d="M45 18H33C32.4477 18 32 17.5523 32 17C32 16.4477 32.4477 16 33 16H45C45.5523 16 46 16.4477 46 17C46 17.5523 45.5523 18 45 18Z" fill="white"/>
<path opacity="0.497489" fill-rule="evenodd" clip-rule="evenodd" d="M45 27H26C25.4477 27 25 26.5523 25 26C25 25.4477 25.4477 25 26 25H45C45.5523 25 46 25.4477 46 26C46 26.5523 45.5523 27 45 27Z" fill="white"/>
<path opacity="0.497489" fill-rule="evenodd" clip-rule="evenodd" d="M45 36H19C18.4477 36 18 35.5523 18 35C18 34.4477 18.4477 34 19 34H45C45.5523 34 46 34.4477 46 35C46 35.5523 45.5523 36 45 36Z" fill="white"/>
</svg>
