<svg width="33" height="32" viewBox="0 0 33 32" fill="none" xmlns="http://www.w3.org/2000/svg">
<path fill-rule="evenodd" clip-rule="evenodd" d="M8 6C7.44772 6 7 5.70152 7 5.33333V0.666667C7 0.298477 7.44772 0 8 0C8.55228 0 9 0.298477 9 0.666667V5.33333C9 5.70152 8.55228 6 8 6Z" fill="white"/>
<path fill-rule="evenodd" clip-rule="evenodd" d="M24 6C23.4477 6 23 5.70152 23 5.33333V0.666667C23 0.298477 23.4477 0 24 0C24.5523 0 25 0.298477 25 0.666667V5.33333C25 5.70152 24.5523 6 24 6Z" fill="white"/>
<path opacity="0.5" fill-rule="evenodd" clip-rule="evenodd" d="M18.4909 27.6316H2.18182C1.78016 27.6316 1.45455 27.3252 1.45455 26.9474V11.2105C1.45455 10.8326 1.78016 10.5263 2.18182 10.5263H29.8182C30.2198 10.5263 30.5455 10.8326 30.5455 11.2105V19.2753C31.0768 19.6029 31.5651 19.9885 32 20.4241V4.36842C32 3.61266 31.3488 3 30.5455 3H26.1818V5.73684C26.1818 6.87048 25.205 7.78947 24 7.78947C22.795 7.78947 21.8182 6.87048 21.8182 5.73684V3H10.1818V5.73684C10.1818 6.87048 9.20498 7.78947 8 7.78947C6.79502 7.78947 5.81818 6.87048 5.81818 5.73684V3H1.45455C0.651222 3 0 3.61266 0 4.36842V27.6316C0 28.3873 0.651222 29 1.45455 29H19.0618C18.824 28.5627 18.6328 28.1043 18.4909 27.6316Z" fill="white"/>
<path fill-rule="evenodd" clip-rule="evenodd" d="M26.5 32C22.9101 32 20 29.0899 20 25.5C20.004 21.9118 22.9118 19.004 26.5 19C30.0899 19 33 21.9101 33 25.5C33 29.0899 30.0899 32 26.5 32ZM30.6217 23.8439C30.9037 23.5619 30.9037 23.1048 30.6217 22.8227C30.3397 22.5408 29.8825 22.5408 29.6005 22.8227L25.0556 27.3677L23.3995 25.7116C23.1161 25.4379 22.6657 25.4418 22.3871 25.7204C22.1085 25.999 22.1046 26.4494 22.3783 26.7328L24.5449 28.8995C24.827 29.1814 25.2841 29.1814 25.5662 28.8995L30.6217 23.8439Z" fill="white"/>
</svg>
